<svg width="101" height="35" viewBox="0 0 101 35" fill="none" xmlns="http://www.w3.org/2000/svg">
<path d="M14.9863 0.53007H0V10.4696C6.09658 5.061 13.822 1.9023 21.9178 1.50807C19.6712 0.820718 17.3329 0.490787 14.9863 0.53007ZM30.363 10.4141C26.6237 9.64669 22.8006 9.38314 18.9931 9.63035C19.6588 10.247 20.1665 11.0183 20.4726 11.8777C21.0926 13.7676 21.3688 15.7559 21.2877 17.7457C21.38 19.7106 21.0771 21.6739 20.3973 23.5166C19.9228 24.7138 19.0064 25.6767 17.8425 26.2009C16.5313 26.7049 15.1345 26.9407 13.7329 26.8945H9.78082V11.0523C8.5274 11.3713 7.27397 11.7459 6.00685 12.1343C3.95207 12.7896 1.94492 13.5892 0 14.5273V34.4619H14.9863C20.2192 34.4619 24.2443 33.1256 27.0616 30.4528C29.879 27.7801 31.2808 23.5328 31.2671 17.711C31.3087 15.2476 31.0043 12.7908 30.363 10.4141Z" fill="black"/>
<path d="M33.1918 0.53007V2.44446C36.5444 3.15744 39.8203 4.20051 42.9726 5.55881V0.53007H33.1918ZM55.1096 0.53007V12.3216C56.1644 13.043 57.274 13.8059 58.3356 14.5759C60.4415 16.1351 62.6247 17.5844 64.8767 18.9179V0.53007H55.1096ZM57.2603 24.342C56.4246 23.8773 55.5959 23.3779 54.7808 22.8577C54.5683 23.6813 54.14 24.4314 53.5411 25.0287C52.9308 25.5702 52.221 25.9843 51.4523 26.2474C50.6836 26.5104 49.8712 26.6172 49.0616 26.5616C45 26.5616 42.9726 24.4807 42.9726 20.319V15.1516C39.8824 13.4153 36.599 12.0578 33.1918 11.1078V21.4011C33.1134 24.0401 33.8301 26.6409 35.2466 28.8575C36.6316 30.903 38.5766 32.4941 40.8425 33.4354C43.4476 34.5206 46.2452 35.0518 49.0616 34.996C51.8779 35.0505 54.6753 34.5193 57.2808 33.4354C59.5381 32.4951 61.4723 30.903 62.8425 28.8575C63.1305 28.4312 63.3825 27.981 63.5959 27.5119C61.4315 26.5666 59.3168 25.5085 57.2603 24.342Z" fill="black"/>
<path d="M99.0548 7.41771C97.8229 4.91615 95.7761 2.92184 93.2603 1.77165C90.3062 0.515023 87.1205 -0.0857378 83.9178 0.00985514C80.7151 -0.0850917 77.5296 0.515644 74.5753 1.77165C72.0595 2.92184 70.0127 4.91615 68.7808 7.41771C67.4657 9.99335 66.8059 13.3898 66.8014 17.607C66.8014 18.4463 66.8014 19.2578 66.8767 20.0346C70.4521 21.9689 74.294 23.3484 78.274 24.127C77.2808 22.6843 76.7945 20.5132 76.7945 17.607C76.7945 14.2637 77.3584 11.9031 78.4863 10.5251C79.6096 9.13789 81.4247 8.44427 83.9178 8.44427C86.4109 8.44427 88.226 9.13789 89.3562 10.5251C90.4863 11.9124 91.0411 14.2637 91.0411 17.607C91.0411 20.6959 90.4909 22.9548 89.3904 24.3836C91.1257 24.0762 92.8167 23.552 94.4247 22.823C97.589 21.3872 99.9041 19.23 101 15.8868C100.952 12.956 100.289 10.0691 99.0548 7.41771ZM99.5479 23.2253C95.1507 28.4483 89.3151 30.7719 82.6918 31.2227C78.4989 31.4903 74.2916 31.04 70.2466 29.891C70.5543 30.2424 70.8837 30.5737 71.2329 30.8829C74.1644 33.625 78.4041 34.996 83.952 34.996C89.5 34.996 93.7329 33.625 96.6507 30.8829C98.9338 28.7558 100.331 25.6113 100.842 21.4496C100.461 22.0775 100.028 22.6715 99.5479 23.2253Z" fill="black"/>
</svg>
